<?xml version="1.0" encoding="UTF-8"?>
<svg version="1.1" xmlns="http://www.w3.org/2000/svg" width="800" height="800">
<path d="M0 0 C264 0 528 0 800 0 C800 264 800 528 800 800 C536 800 272 800 0 800 C0 536 0 272 0 0 Z " fill="#DDDDE7" transform="translate(0,0)"/>
<path d="M0 0 C24.05870967 19.52640318 35.09883015 51.72232961 42.7578125 80.67578125 C43.06106445 81.81934082 43.36431641 82.96290039 43.67675781 84.14111328 C45.06893524 89.63702404 46.14968888 94.56423784 45.7578125 100.23828125 C41.48712214 96.73926046 37.5435986 93.07076607 33.68359375 89.12109375 C32.76771484 88.18394531 31.85183594 87.24679687 30.90820312 86.28125 C29.49311111 84.82938653 28.08136635 83.37480609 26.67797852 81.91162109 C18.20863555 73.10088057 9.16758453 65.16036276 -2.6171875 61.30078125 C-3.73867188 60.92050781 -4.86015625 60.54023438 -6.015625 60.1484375 C-19.50659106 56.34287443 -32.13955654 57.89225741 -45.2421875 62.23828125 C-46.05574707 62.50141113 -46.86930664 62.76454102 -47.70751953 63.03564453 C-73.96627525 71.64243758 -97.64339863 84.63949238 -117.2421875 104.23828125 C-117.98984375 104.9859375 -118.7375 105.73359375 -119.5078125 106.50390625 C-138.76506065 126.9742094 -146.71180067 153.01374972 -146.4921875 180.67578125 C-146.48324463 181.95493408 -146.47430176 183.23408691 -146.46508789 184.55200195 C-146.23470082 203.2634907 -143.37108297 223.16317317 -135.45703125 240.33203125 C-134.2421875 243.23828125 -134.2421875 243.23828125 -135.2421875 246.23828125 C-162.63577784 221.56462186 -190.65709816 189.97535612 -193.46313477 151.18383789 C-194.71230608 116.0876936 -183.39797845 88.89327686 -159.6796875 62.98828125 C-157.88004139 61.05881846 -156.06300488 59.14798468 -154.2421875 57.23828125 C-153.51515625 56.45839844 -152.788125 55.67851562 -152.0390625 54.875 C-146.18636831 48.77302439 -139.67947306 43.65563981 -132.96484375 38.55078125 C-131.39287537 37.35309105 -129.8325072 36.14021449 -128.2734375 34.92578125 C-119.9277492 28.50602102 -111.14860463 22.83714163 -102.2421875 17.23828125 C-101.65163574 16.8623584 -101.06108398 16.48643555 -100.45263672 16.09912109 C-91.71066682 10.55264933 -82.60518013 5.70988602 -73.4296875 0.92578125 C-72.2845166 0.32660889 -71.1393457 -0.27256348 -69.95947266 -0.88989258 C-46.08392815 -13.21258646 -22.57674424 -16.94642596 0 0 Z " fill="#67347F" transform="translate(401.2421875,225.76171875)"/>
<path d="M0 0 C4.36281724 2.37603243 7.77817565 5.31580593 11.375 8.6875 C11.9529834 9.22713379 12.5309668 9.76676758 13.12646484 10.32275391 C17.37843743 14.33271509 21.33440865 18.44191685 25 23 C25.39896484 23.48662109 25.79792969 23.97324219 26.20898438 24.47460938 C49.2309235 52.60506637 61.26479836 82.26345223 59 119 C57.66942261 130.57510877 53.31908132 140.74932011 48 151 C47.55011719 151.92941406 47.10023438 152.85882813 46.63671875 153.81640625 C27.88301831 190.93656258 -9.42848143 215.3373012 -44 236 C-44.61198242 236.36867188 -45.22396484 236.73734375 -45.85449219 237.1171875 C-55.22666494 242.74154836 -64.91320232 247.60040505 -74.88916016 252.05615234 C-76.63653452 252.83747889 -78.37261561 253.64400707 -80.10546875 254.45703125 C-86.68657001 257.14455168 -93.10251487 257.36700131 -100.125 257.4375 C-101.04385986 257.44789307 -101.96271973 257.45828613 -102.90942383 257.46899414 C-118.43265867 257.26721296 -129.06697439 250.45847024 -140 240 C-140.92619141 239.18595703 -140.92619141 239.18595703 -141.87109375 238.35546875 C-161.71306398 220.25482616 -170.2562716 188.85755422 -177 164 C-177.2882666 162.94474121 -177.5765332 161.88948242 -177.87353516 160.80224609 C-178.28611572 159.23531006 -178.28611572 159.23531006 -178.70703125 157.63671875 C-178.95557861 156.69916748 -179.20412598 155.76161621 -179.46020508 154.7956543 C-180.03818829 151.80221884 -180.09282593 149.04138126 -180 146 C-174.86099918 150.21607822 -170.24628691 154.7616627 -165.62817383 159.53930664 C-149.81538602 175.83705246 -135.26549336 187.03325753 -111.8125 187.4375 C-78.85165784 187.60509234 -41.01298322 165.64111172 -17.9296875 143.05859375 C1.12315512 123.61220061 12.34543439 97.74339071 12.36621094 70.47070312 C12.33962402 68.53614258 12.33962402 68.53614258 12.3125 66.5625 C12.30690063 65.88678955 12.30130127 65.2110791 12.29553223 64.51489258 C12.13507777 45.23987462 8.64071396 28.21651189 2.8828125 9.83203125 C1.86558055 6.56878717 0.9187269 3.29210471 0 0 Z " fill="#682E72" transform="translate(533,215)"/>
<path d="M0 0 C3.51676417 2.96450194 6.96087411 5.99257681 10.33984375 9.11328125 C12.39607226 11.00165437 14.49958283 12.80246208 16.63671875 14.59765625 C41.07126741 36.0571401 58.4589003 66.87753778 73.63671875 95.22265625 C74.19601074 96.26317139 74.19601074 96.26317139 74.76660156 97.32470703 C83.82752203 114.32906133 89.72898396 130.34672481 85.9375 149.8125 C79.48079432 170.98068698 61.85281747 184.99809161 43.04296875 195.05078125 C35.86272267 198.70677811 28.31642654 201.53841498 20.78686523 204.38208008 C18.91972115 205.11201957 17.08656255 205.92776202 15.26171875 206.7578125 C10.34986662 208.74266654 5.33063673 209.99487687 0.19921875 211.28515625 C-0.79916016 211.54103516 -1.79753906 211.79691406 -2.82617188 212.06054688 C-4.77426881 212.55877811 -6.72330004 213.05337342 -8.67333984 213.54394531 C-10.3656176 213.97093135 -12.05631919 214.40426431 -13.74462891 214.84667969 C-17.73817023 215.88479832 -21.22688376 216.42947612 -25.36328125 216.22265625 C-21.74594361 211.7777821 -17.88478055 207.69961095 -13.7734375 203.7109375 C-13.00765884 202.96407181 -13.00765884 202.96407181 -12.22640991 202.20211792 C-10.09669542 200.1262109 -7.96638222 198.0514937 -5.81567383 195.99731445 C7.2288606 183.51049413 16.4212701 169.03960238 16.93017578 150.46679688 C17.1950887 120.98674415 1.48586859 90.11219689 -16.36328125 67.22265625 C-17.00885986 66.38758545 -17.00885986 66.38758545 -17.66748047 65.53564453 C-35.42403097 42.82806475 -59.15921058 29.33156422 -87.36328125 24.22265625 C-88.39710938 24.02671875 -89.4309375 23.83078125 -90.49609375 23.62890625 C-96.09231355 22.83598137 -101.72571244 23.09593902 -107.36328125 23.22265625 C-108.39340332 23.24150879 -108.39340332 23.24150879 -109.44433594 23.26074219 C-127.75011294 23.67201366 -144.44415169 27.53448069 -161.67041016 33.66821289 C-163.13099854 34.18436157 -163.13099854 34.18436157 -164.62109375 34.7109375 C-165.48879395 35.02587158 -166.35649414 35.34080566 -167.25048828 35.6652832 C-169.36328125 36.22265625 -169.36328125 36.22265625 -171.36328125 35.22265625 C-167.90821844 31.43514753 -164.43627725 27.66449873 -160.93994141 23.91503906 C-159.60096794 22.47778851 -158.26852087 21.03446222 -156.9375 19.58984375 C-115.17841295 -24.11655824 -49.87872529 -39.44384552 0 0 Z " fill="#682D70" transform="translate(442.36328125,164.77734375)"/>
<path d="M0 0 C-3.92877674 4.74335565 -8.06188009 9.10886988 -12.47192383 13.40625 C-27.41244659 27.96807797 -40.73699362 43.09076653 -41.35400391 64.93774414 C-41.42484882 73.37240823 -40.76654509 80.9740865 -38 89 C-37.76361816 89.69561035 -37.52723633 90.3912207 -37.28369141 91.10791016 C-33.52359552 102.06504656 -29.17486673 112.63863763 -24 123 C-23.45730469 124.09699219 -22.91460937 125.19398438 -22.35546875 126.32421875 C-15.9083488 138.84099262 -7.7262374 149.84186928 2 160 C2.69480469 160.75796875 3.38960938 161.5159375 4.10546875 162.296875 C21.15239631 180.30637952 45.70323058 190.76852234 70.33544922 192.19287109 C92.78297209 192.71417177 114.2611022 191.60677892 135.328125 182.91796875 C138.06803405 181.97662573 140.12672123 181.81648767 143 182 C143 181.34 143 180.68 143 180 C144.32 179.67 145.64 179.34 147 179 C145.63499776 182.0227429 144.06933564 184.22897092 141.8046875 186.64453125 C141.17046875 187.32193359 140.53625 187.99933594 139.8828125 188.69726562 C139.22023438 189.39529297 138.55765625 190.09332031 137.875 190.8125 C136.9159375 191.84213867 136.9159375 191.84213867 135.9375 192.89257812 C114.21850678 215.94175065 82.60463819 237.56627425 50.18701172 239.13623047 C15.39205173 240.04697483 -11.56589785 228.92749127 -36.9296875 204.94140625 C-37.95385306 203.96169803 -38.97727453 202.98121144 -40 202 C-40.53270508 201.49452637 -41.06541016 200.98905273 -41.61425781 200.46826172 C-49.9199033 192.55495064 -57.16409041 184.20227557 -64 175 C-64.51030762 174.32340332 -65.02061523 173.64680664 -65.54638672 172.94970703 C-86.80448817 144.71114052 -114.91172371 105.94310622 -111 69 C-110.17896496 64.97741414 -108.88300827 61.63712014 -107 58 C-106.525625 57.02933594 -106.05125 56.05867188 -105.5625 55.05859375 C-95.71118834 36.51634127 -77.57999749 25.38668142 -59 17 C-58.01290039 16.54995605 -58.01290039 16.54995605 -57.00585938 16.09082031 C-40.12394525 8.49478731 -18.72941347 -0.46754777 0 0 Z " fill="#69255E" transform="translate(382,306)"/>
<path d="M0 0 C1.12151459 -0.01283524 2.24302917 -0.02567047 3.39852905 -0.03889465 C4.605867 -0.04628159 5.81320496 -0.05366852 7.05712891 -0.0612793 C8.925056 -0.07338692 8.925056 -0.07338692 10.83071899 -0.08573914 C13.46514597 -0.0995672 16.09944836 -0.11058783 18.73388672 -0.11816406 C21.430405 -0.12703285 24.12640944 -0.14793123 26.82275391 -0.1796875 C30.7135373 -0.22227863 34.60364159 -0.23852109 38.49462891 -0.2487793 C40.29956314 -0.27504143 40.29956314 -0.27504143 42.14096069 -0.30183411 C52.89871576 -0.27392844 52.89871576 -0.27392844 57.40869141 4.17700195 C62.2859061 10.33097708 61.99278781 16.26351753 61.93994141 23.8996582 C61.94568176 25.72792397 61.94568176 25.72792397 61.95153809 27.59312439 C61.954253 30.16251454 61.94692148 32.73193252 61.93017578 35.30126953 C61.90874392 39.22987515 61.93000368 43.15665574 61.95556641 47.08520508 C61.95292342 49.58586015 61.94779905 52.08651408 61.93994141 54.5871582 C61.94803833 55.75916275 61.95613525 56.9311673 61.96447754 58.13868713 C61.89203549 64.44782836 61.70624931 68.41328333 57.40869141 73.17700195 C53.01799625 77.1393366 49.96473047 78.296189 44.11450195 78.33813477 C43.03295334 78.34774231 41.95140472 78.35734985 40.83708191 78.36724854 C39.66833023 78.37149841 38.49957855 78.37574829 37.29541016 78.38012695 C36.09310257 78.38582703 34.89079498 78.3915271 33.65205383 78.3973999 C31.10585409 78.40685271 28.55964211 78.41338499 26.01342773 78.41723633 C22.12217808 78.42693717 18.23145758 78.45795695 14.34033203 78.48950195 C11.86702788 78.4960325 9.39371994 78.50128277 6.92041016 78.50512695 C5.75773117 78.51747375 4.59505219 78.52982056 3.3971405 78.5425415 C-6.77076153 78.51457199 -6.77076153 78.51457199 -11.59130859 75.17700195 C-15.66625872 70.77165047 -16.71171714 67.59311407 -16.75244141 61.68334961 C-16.76204895 60.5585318 -16.77165649 59.43371399 -16.78155518 58.27481079 C-16.78580505 57.0591745 -16.79005493 55.84353821 -16.79443359 54.59106445 C-16.80013367 53.3419931 -16.80583374 52.09292175 -16.81170654 50.80599976 C-16.82115957 48.16140092 -16.82805497 45.51691565 -16.83154297 42.87231445 C-16.83702559 39.4906511 -16.86105315 36.10939081 -16.88951492 32.72785378 C-16.91266551 29.49478799 -16.91459244 26.26170152 -16.91943359 23.02856445 C-16.9317804 21.81697662 -16.9441272 20.60538879 -16.95684814 19.35708618 C-16.95384705 18.22596405 -16.95084595 17.09484192 -16.94775391 15.92944336 C-16.95139954 14.93699615 -16.95504517 13.94454895 -16.95880127 12.92202759 C-16.28861768 7.91601999 -13.36977491 4.38297337 -9.59130859 1.17700195 C-6.39159316 0.10114709 -3.35884775 0.03354764 0 0 Z " fill="#292B62" transform="translate(287.59130859375,580.822998046875)"/>
<path d="M0 0 C10.910625 -0.0825 21.82125 -0.165 33.0625 -0.25 C36.49664307 -0.28641602 39.93078613 -0.32283203 43.46899414 -0.36035156 C46.19937515 -0.37203707 48.92976314 -0.38222922 51.66015625 -0.390625 C52.71365517 -0.40630524 52.71365517 -0.40630524 53.78843689 -0.42230225 C68.21664891 -0.62615631 68.21664891 -0.62615631 74 4 C79.3843415 10.35457186 78.59541909 17.55922395 78.5 25.5625 C78.52320313 27.51446289 78.52320313 27.51446289 78.546875 29.50585938 C78.54171875 30.76333984 78.5365625 32.02082031 78.53125 33.31640625 C78.52673828 34.45537354 78.52222656 35.59434082 78.51757812 36.76782227 C77.70635438 41.83376148 75.18295091 44.93245894 71.4375 48.3125 C66.70529121 50.63558432 62.21409237 50.81444511 57 51 C57.61746094 51.66644531 58.23492188 52.33289063 58.87109375 53.01953125 C63.35405817 57.89825205 67.78185208 62.8166781 72.0625 67.875 C72.79597656 68.73867188 73.52945313 69.60234375 74.28515625 70.4921875 C76.0602298 73.08808093 76.63944869 74.9048057 77 78 C72.17535015 78.67943149 67.80828297 78.88587109 63 78 C59.65141174 75.39091335 57.55075985 72.25480908 55.22167969 68.73388672 C52.89632409 65.43359187 50.16514086 62.46438911 47.5 59.4375 C42.14912085 53.2982417 42.14912085 53.2982417 41 51 C31.43 50.67 21.86 50.34 12 50 C12 59.24 12 68.48 12 78 C8.04 78 4.08 78 0 78 C0 52.26 0 26.52 0 0 Z " fill="#24275E" transform="translate(623,581)"/>
<path d="M0 0 C10.725 -0.0825 21.45 -0.165 32.5 -0.25 C37.55924805 -0.30462402 37.55924805 -0.30462402 42.72070312 -0.36035156 C45.40754561 -0.37203898 48.0943952 -0.38223068 50.78125 -0.390625 C51.47021362 -0.40107849 52.15917725 -0.41153198 52.86901855 -0.42230225 C67.44804027 -0.63223948 67.44804027 -0.63223948 74 4 C78.53689221 9.27797595 77.48477175 16.14103624 77.44604492 22.71948242 C77.4375371 24.92786973 77.46631589 27.13366485 77.49804688 29.34179688 C77.49965934 30.75781173 77.49908049 32.17383113 77.49609375 33.58984375 C77.49794678 34.86722412 77.4997998 36.14460449 77.50170898 37.46069336 C76.91137427 41.62521032 75.64673033 43.76497492 73 47 C69.10238776 49.21628931 65.66440044 50.13435413 61.26171875 50.57421875 C60.46080811 50.65631592 59.65989746 50.73841309 58.8347168 50.82299805 C58.22926025 50.88140869 57.62380371 50.93981934 57 51 C57.85722656 51.97839844 58.71445313 52.95679688 59.59765625 53.96484375 C77 73.88919261 77 73.88919261 77 77 C64.86821045 78.91554572 64.86821045 78.91554572 60.35498047 75.90136719 C57.19135613 72.89701713 54.72100337 69.3693282 52.25976562 65.78369141 C50.29537744 63.00233093 48.0822042 60.4674238 45.875 57.875 C42.12648221 53.37944664 42.12648221 53.37944664 41 50 C31.43 50 21.86 50 12 50 C12 59.24 12 68.48 12 78 C8.04 78 4.08 78 0 78 C0 52.26 0 26.52 0 0 Z " fill="#24275E" transform="translate(185,581)"/>
<path d="M0 0 C4.87183299 1.0670297 7.63293257 4.29958512 10.99511719 7.81933594 C13.13735849 10.03473289 15.33363692 12.19109693 17.53125 14.3515625 C20.96821841 17.74283767 24.40020083 21.13857626 27.80859375 24.55859375 C28.53570557 25.2868335 29.26281738 26.01507324 30.01196289 26.76538086 C32.66192404 29.61716402 32.9137198 31.53250371 33.0234375 35.34375 C33.07951172 36.60445313 33.07951172 36.60445313 33.13671875 37.890625 C31.91196037 45.66615529 24.20737977 51.43543694 18.85717773 56.76318359 C17.27236865 58.34481671 15.70139935 59.93936802 14.13085938 61.53515625 C13.11799852 62.55028902 12.104353 63.56463962 11.08984375 64.578125 C10.1779126 65.49303711 9.26598145 66.40794922 8.32641602 67.35058594 C4.71337555 70.44930859 1.96758727 71.45666093 -2.7265625 71.96875 C-9.23416903 71.28373879 -13.35390791 66.78353267 -17.8359375 62.3125 C-18.5818515 61.56945618 -18.5818515 61.56945618 -19.34283447 60.81140137 C-20.38384548 59.77174163 -21.42237431 58.72959099 -22.45849609 57.68505859 C-24.04175356 56.09104065 -25.63546923 54.50804037 -27.23046875 52.92578125 C-28.24543392 51.90949518 -29.2597789 50.89258927 -30.2734375 49.875 C-31.18834961 48.95783203 -32.10326172 48.04066406 -33.04589844 47.09570312 C-36.99130917 42.69511875 -37.97170859 39.14397343 -37.75878906 33.29541016 C-37.22517279 30.22628456 -36.49903038 29.1611195 -34.39453125 26.9140625 C-33.7595874 26.23021484 -33.12464355 25.54636719 -32.47045898 24.84179688 C-31.75059814 24.09994141 -31.0307373 23.35808594 -30.2890625 22.59375 C-29.49636963 21.77455078 -28.70367676 20.95535156 -27.88696289 20.11132812 C-25.28995084 17.46087962 -22.66867833 14.83683243 -20.0390625 12.21875 C-19.141875 11.31769531 -18.2446875 10.41664063 -17.3203125 9.48828125 C-16.45921875 8.62847656 -15.598125 7.76867187 -14.7109375 6.8828125 C-13.54449707 5.71806396 -13.54449707 5.71806396 -12.35449219 4.52978516 C-8.28535069 0.71556623 -5.44776039 -0.18731554 0 0 Z " fill="#23265D" transform="translate(402.2890625,307.40625)"/>
<path d="M0 0 C1.24245483 -0.00145523 2.48490967 -0.00291046 3.76501465 -0.00440979 C7.05749455 -0.00232905 10.34920281 0.01866611 13.64154053 0.04656982 C15.65458083 0.05858379 17.66711672 0.05695899 19.68017578 0.05004883 C23.55784899 0.03744199 27.43485086 0.0461404 31.3125 0.0625 C32.50951538 0.05956436 33.70653076 0.05662872 34.93981934 0.05360413 C45.38922769 0.1718014 45.38922769 0.1718014 50.15625 3.49609375 C55.21515119 9.10190318 55.26108582 12.15758658 55.15625 19.49609375 C51.19625 19.49609375 47.23625 19.49609375 43.15625 19.49609375 C42.66125 16.52609375 42.66125 16.52609375 42.15625 13.49609375 C24.99625 13.16609375 7.83625 12.83609375 -9.84375 12.49609375 C-9.864375 21.05546875 -9.885 29.61484375 -9.90625 38.43359375 C-9.915354 41.13925537 -9.92445801 43.84491699 -9.93383789 46.63256836 C-9.93675685 48.76285757 -9.93930545 50.89314733 -9.94140625 53.0234375 C-9.9490802 54.69992371 -9.9490802 54.69992371 -9.95690918 56.41027832 C-9.95703003 57.46589966 -9.95715088 58.521521 -9.95727539 59.60913086 C-9.96060631 60.99146156 -9.96060631 60.99146156 -9.96400452 62.40171814 C-10.0774698 64.48417737 -10.0774698 64.48417737 -8.84375 65.49609375 C-7.28375952 65.59456342 -5.71934456 65.62407993 -4.15625 65.62548828 C-3.15851563 65.62864044 -2.16078125 65.6317926 -1.1328125 65.63504028 C-0.04742187 65.63301605 1.03796875 65.63099182 2.15625 65.62890625 C3.26226562 65.62986298 4.36828125 65.6308197 5.5078125 65.63180542 C7.85156308 65.63248742 10.19531553 65.63063179 12.5390625 65.62646484 C16.14066788 65.62111689 19.74214853 65.62640922 23.34375 65.6328125 C25.61458361 65.63215172 27.88541714 65.63087057 30.15625 65.62890625 C31.24164063 65.63093048 32.32703125 65.63295471 33.4453125 65.63504028 C34.44304687 65.63188812 35.44078125 65.62873596 36.46875 65.62548828 C37.79326172 65.62429489 37.79326172 65.62429489 39.14453125 65.62307739 C41.15392892 65.71880049 41.15392892 65.71880049 42.15625 64.49609375 C42.39340955 61.63553961 42.57815617 58.79881719 42.71875 55.93359375 C42.863125 53.14921875 43.0075 50.36484375 43.15625 47.49609375 C37.21625 47.49609375 31.27625 47.49609375 25.15625 47.49609375 C25.15625 43.53609375 25.15625 39.57609375 25.15625 35.49609375 C35.05625 35.49609375 44.95625 35.49609375 55.15625 35.49609375 C55.24837428 40.08695395 55.32791281 44.6745749 55.37597656 49.265625 C55.39602222 50.82530619 55.42326657 52.38491288 55.45800781 53.94433594 C55.50684126 56.19354689 55.52928815 58.44175965 55.546875 60.69140625 C55.56752014 61.38227325 55.58816528 62.07314026 55.60943604 62.78494263 C55.61175971 67.86286492 54.53731048 70.72357716 51.15625 74.49609375 C44.95427045 79.29156106 38.1282796 79.08089499 30.58984375 79.02734375 C29.39698257 79.03117065 28.2041214 79.03499756 26.97511292 79.03894043 C24.46297355 79.04165278 21.95080562 79.03433933 19.4387207 79.01757812 C15.60238527 78.996142 11.76791859 79.01741486 7.93164062 79.04296875 C5.48437088 79.04032573 3.0371023 79.03520128 0.58984375 79.02734375 C-0.55198868 79.03544067 -1.69382111 79.0435376 -2.87025452 79.05187988 C-9.38028432 78.9755091 -13.7028877 78.65370334 -18.84375 74.49609375 C-23.83934098 68.38501693 -23.42695954 62.20304704 -23.375 54.5546875 C-23.3788269 53.31364761 -23.38265381 52.07260773 -23.38659668 50.79396057 C-23.39000483 47.50973087 -23.37398522 44.22626686 -23.3515625 40.94213867 C-23.34374999 38.93359244 -23.35154445 36.92574428 -23.36523438 34.91723633 C-23.38996882 31.04605845 -23.38694661 27.17590868 -23.375 23.3046875 C-23.38309692 22.11080917 -23.39119385 20.91693085 -23.39953613 19.68687439 C-23.28056949 9.13689963 -23.28056949 9.13689963 -18.84375 4.49609375 C-13.3401007 -0.77530858 -7.18140738 -0.06739744 0 0 Z " fill="#262960" transform="translate(384.84375,580.50390625)"/>
<path d="M0 0 C1.01775513 -0.00315216 2.03551025 -0.00630432 3.08410645 -0.009552 C4.19137085 -0.00752777 5.29863525 -0.00550354 6.43945312 -0.00341797 C7.56766479 -0.00437469 8.69587646 -0.00533142 9.85827637 -0.00631714 C12.24910538 -0.00699915 14.63993624 -0.00514344 17.03076172 -0.00097656 C20.70479464 0.00437137 24.37870529 -0.0009209 28.05273438 -0.00732422 C30.3691409 -0.00666344 32.68554734 -0.00538229 35.00195312 -0.00341797 C36.66284973 -0.00645432 36.66284973 -0.00645432 38.3572998 -0.009552 C39.37505493 -0.00639984 40.39281006 -0.00324768 41.44140625 0 C42.79256531 0.00119339 42.79256531 0.00119339 44.17102051 0.00241089 C46.22070312 0.12939453 46.22070312 0.12939453 47.22070312 1.12939453 C47.31931911 2.75066876 47.34869079 4.37621821 47.35009766 6.00048828 C47.35324982 7.03826416 47.35640198 8.07604004 47.35964966 9.14526367 C47.35762543 10.27440186 47.3556012 11.40354004 47.35351562 12.56689453 C47.35447235 13.71730225 47.35542908 14.86770996 47.35641479 16.05297852 C47.35709681 18.49088597 47.35524103 20.92879523 47.35107422 23.36669922 C47.3457263 27.11315971 47.35101852 30.8595003 47.35742188 34.60595703 C47.3567611 36.96793646 47.35547994 39.32991582 47.35351562 41.69189453 C47.35553986 42.82103271 47.35756409 43.9501709 47.35964966 45.11352539 C47.35492142 46.67018921 47.35492142 46.67018921 47.35009766 48.25830078 C47.34930206 49.17683838 47.34850647 50.09537598 47.34768677 51.04174805 C47.22070312 53.12939453 47.22070312 53.12939453 46.22070312 54.12939453 C44.66601058 54.22785914 43.10687913 54.25738066 41.54907227 54.25878906 C40.55456558 54.26194122 39.5600589 54.26509338 38.53541565 54.26834106 C37.45316208 54.26631683 36.37090851 54.2642926 35.25585938 54.26220703 C33.60039345 54.26364212 33.60039345 54.26364212 31.91148376 54.2651062 C29.57192935 54.26578825 27.23237307 54.26393223 24.89282227 54.25976562 C21.30220298 54.2544228 17.71170909 54.25970719 14.12109375 54.26611328 C11.85351535 54.2654524 9.58593702 54.26417104 7.31835938 54.26220703 C5.69801537 54.26524338 5.69801537 54.26524338 4.04493713 54.26834106 C3.04727829 54.2651889 2.04961945 54.26203674 1.02172852 54.25878906 C-0.29945229 54.25759567 -0.29945229 54.25759567 -1.64732361 54.25637817 C-3.77929688 54.12939453 -3.77929688 54.12939453 -5.77929688 53.12939453 C-5.8045638 45.74211351 -5.82212848 38.35484355 -5.83422852 30.9675293 C-5.83927051 28.45222558 -5.8461039 25.93692481 -5.85473633 23.42163086 C-5.86680781 19.81509678 -5.87252636 16.20860131 -5.87695312 12.60205078 C-5.88211441 11.46977554 -5.8872757 10.33750031 -5.89259338 9.1709137 C-5.89266891 8.12991013 -5.89274445 7.08890656 -5.89282227 6.01635742 C-5.89504288 5.09480362 -5.89726349 4.17324982 -5.89955139 3.22377014 C-5.67030382 -0.76884933 -3.4715873 0.00306622 0 0 Z " fill="#DBDBE6" transform="translate(288.779296875,592.87060546875)"/>
<path d="M0 0 C23.43 0 46.86 0 71 0 C71 3.96 71 7.92 71 12 C51.53 12 32.06 12 12 12 C12 18.93 12 25.86 12 33 C27.51 33 43.02 33 59 33 C59 36.96 59 40.92 59 45 C43.49 45 27.98 45 12 45 C12 51.93 12 58.86 12 66 C31.47 66 50.94 66 71 66 C71 69.63 71 73.26 71 77 C47.57 77 24.14 77 0 77 C0 51.59 0 26.18 0 0 Z " fill="#23265E" transform="translate(541,581)"/>
<path d="M0 0 C14 0 14 0 17.89453125 2.89453125 C18.91051053 4.16710937 19.88283967 5.47556296 20.8125 6.8125 C21.61192017 7.84201782 21.61192017 7.84201782 22.42749023 8.89233398 C23.49461453 10.27092408 24.54476197 11.66284932 25.57617188 13.06835938 C27.4768226 15.64688278 29.51360928 18.10088309 31.5625 20.5625 C32.26503906 21.43003906 32.96757812 22.29757812 33.69140625 23.19140625 C36.91500637 27.11318034 40.23344723 30.95063161 43.54785156 34.7956543 C47.36713283 39.23621021 51.0952461 43.74300014 54.76953125 48.3046875 C57.77187392 51.93273731 60.89895316 55.45594647 64 59 C64.33 39.53 64.66 20.06 65 0 C68.96 0 72.92 0 77 0 C77 25.74 77 51.48 77 78 C63 78 63 78 58.1875 73.6875 C56.75945226 71.81581243 55.36373901 69.91904941 54 68 C52.57376743 66.24080504 51.13605875 64.49085721 49.6875 62.75 C48.94886719 61.83734375 48.21023438 60.9246875 47.44921875 59.984375 C44.68189198 56.61238513 41.84849585 53.30337679 39 50 C34.69122801 44.9994713 30.46608487 39.94339896 26.3125 34.8125 C24.56367535 32.68555111 22.79611707 30.58639862 21 28.5 C20.49154541 27.90775635 19.98309082 27.3155127 19.45922852 26.70532227 C18.46126747 25.54597109 17.45927787 24.39007289 16.45288086 23.23803711 C13 19.22111768 13 19.22111768 13 17 C12.34 17 11.68 17 11 17 C11 36.8 11 56.6 11 77 C7.37 77 3.74 77 0 77 C0 51.59 0 26.18 0 0 Z " fill="#23265E" transform="translate(452,581)"/>
<path d="M0 0 C3.96 0 7.92 0 12 0 C12 10.89 12 21.78 12 33 C25.03919346 33.91915579 25.03919346 33.91915579 37.078125 29.94140625 C39.32194986 27.07845193 41.1390675 24.12411093 43 21 C44.79326011 18.69881838 46.70334165 16.5068933 48.625 14.3125 C51.13689007 11.41731727 53.61534687 8.55691084 55.796875 5.3984375 C57.43196516 3.10769238 58.6368283 1.53764915 61 0 C65.41555787 -0.6397098 69.57458179 -0.47914302 74 0 C73.67032499 5.41903295 70.48640328 8.31150268 67 12.125 C65.81128274 13.45855136 64.62378956 14.79319482 63.4375 16.12890625 C62.55964844 17.11141357 62.55964844 17.11141357 61.6640625 18.11376953 C58.62837689 21.55474767 55.75560494 25.12147909 52.8828125 28.69921875 C51.27457233 30.66447489 49.59957102 32.51378264 47.875 34.375 C45.7395483 36.78579943 45.7395483 36.78579943 46.1328125 39.375 C47.19407274 42.58746342 48.65704422 44.19255632 51 46.625 C55.08085331 50.98306768 58.89856078 55.4689993 62.6484375 60.11328125 C64.34278332 62.1932174 66.0513036 64.25005699 67.7890625 66.29296875 C68.25127197 66.83840332 68.71348145 67.38383789 69.18969727 67.94580078 C70.49973416 69.48858298 71.81421065 71.02759207 73.12890625 72.56640625 C75 75 75 75 75 77 C69.9193603 77.94866716 64.98099039 78.61006507 60 77 C55.21116885 73.6321983 51.84214062 68.66405653 48.44287109 63.97119141 C46.39099671 61.16800465 44.16959015 58.5367584 41.9375 55.875 C38.04168316 51.07439652 38.04168316 51.07439652 36.45703125 48.24609375 C32.46987414 44.60123629 27.95793304 45.218814 22.75 45.1875 C17.42875 45.0946875 17.42875 45.0946875 12 45 C12 55.89 12 66.78 12 78 C8.04 78 4.08 78 0 78 C0 52.26 0 26.52 0 0 Z " fill="#262960" transform="translate(99,581)"/>
<path d="M0 0 C1.01452744 -0.00637985 2.02905487 -0.0127597 3.07432556 -0.01933289 C4.17845291 -0.02044571 5.28258026 -0.02155853 6.42016602 -0.02270508 C8.10892601 -0.02769768 8.10892601 -0.02769768 9.83180237 -0.03279114 C12.21843048 -0.03786527 14.60506572 -0.04019931 16.99169922 -0.04003906 C20.65482201 -0.04222484 24.31764349 -0.06037373 27.98071289 -0.0793457 C30.2938629 -0.08227958 32.60701434 -0.08426442 34.92016602 -0.08520508 C36.02226913 -0.09239059 37.12437225 -0.09957611 38.25987244 -0.10697937 C39.78639183 -0.10236443 39.78639183 -0.10236443 41.34375 -0.09765625 C42.24230209 -0.09908127 43.14085419 -0.10050629 44.06663513 -0.10197449 C46.23657227 0.14526367 46.23657227 0.14526367 48.23657227 2.14526367 C48.49536133 4.36010742 48.49536133 4.36010742 48.50219727 7.08276367 C48.50606445 8.54842773 48.50606445 8.54842773 48.51000977 10.04370117 C48.50227539 11.0672168 48.49454102 12.09073242 48.48657227 13.14526367 C48.49817383 14.68053711 48.49817383 14.68053711 48.51000977 16.24682617 C48.50743164 17.22393555 48.50485352 18.20104492 48.50219727 19.20776367 C48.49994141 20.10624023 48.49768555 21.0047168 48.49536133 21.93041992 C48.23657227 24.14526367 48.23657227 24.14526367 46.23657227 26.14526367 C44.06663513 26.39250183 44.06663513 26.39250183 41.34375 26.38818359 C40.3260704 26.39126022 39.30839081 26.39433685 38.25987244 26.39750671 C37.15776932 26.3903212 36.0556662 26.38313568 34.92016602 26.37573242 C33.79336929 26.3752742 32.66657257 26.37481598 31.50563049 26.37434387 C29.12076771 26.37131903 26.73590694 26.36342588 24.35107422 26.35107422 C20.68588318 26.33282249 17.02094461 26.33056444 13.35571289 26.33081055 C11.04386173 26.3258954 8.7320123 26.3200671 6.42016602 26.31323242 C5.31603867 26.3121196 4.21191132 26.31100677 3.07432556 26.30986023 C2.05979813 26.30348038 1.04527069 26.29710052 0 26.29052734 C-1.34663475 26.28480965 -1.34663475 26.28480965 -2.72047424 26.27897644 C-4.76342773 26.14526367 -4.76342773 26.14526367 -5.76342773 25.14526367 C-5.86289226 23.37667174 -5.89422991 21.60414916 -5.89624023 19.83276367 C-5.8975293 18.75768555 -5.89881836 17.68260742 -5.90014648 16.57495117 C-5.8943457 14.87725586 -5.8943457 14.87725586 -5.88842773 13.14526367 C-5.89229492 12.0134668 -5.89616211 10.88166992 -5.90014648 9.71557617 C-5.89885742 8.64049805 -5.89756836 7.56541992 -5.89624023 6.45776367 C-5.8951123 5.46389648 -5.89398437 4.4700293 -5.89282227 3.44604492 C-5.65875505 -0.71593517 -3.68007743 0.0156253 0 0 Z " fill="#D2D2DE" transform="translate(640.763427734375,592.854736328125)"/>
<path d="M0 0 C1.01775513 -0.00315216 2.03551025 -0.00630432 3.08410645 -0.009552 C4.19137085 -0.00752777 5.29863525 -0.00550354 6.43945312 -0.00341797 C7.56766479 -0.00437469 8.69587646 -0.00533142 9.85827637 -0.00631714 C12.24910538 -0.00699915 14.63993624 -0.00514344 17.03076172 -0.00097656 C20.70479464 0.00437137 24.37870529 -0.0009209 28.05273438 -0.00732422 C30.3691409 -0.00666344 32.68554734 -0.00538229 35.00195312 -0.00341797 C36.66284973 -0.00645432 36.66284973 -0.00645432 38.3572998 -0.009552 C39.37505493 -0.00639984 40.39281006 -0.00324768 41.44140625 0 C42.79256531 0.00119339 42.79256531 0.00119339 44.17102051 0.00241089 C46.22070312 0.12939453 46.22070312 0.12939453 47.22070312 1.12939453 C47.32016765 2.89798646 47.3515053 4.67050904 47.35351562 6.44189453 C47.35544922 8.05451172 47.35544922 8.05451172 47.35742188 9.69970703 C47.35355469 10.83150391 47.3496875 11.96330078 47.34570312 13.12939453 C47.35150391 14.82708984 47.35150391 14.82708984 47.35742188 16.55908203 C47.35613281 17.63416016 47.35484375 18.70923828 47.35351562 19.81689453 C47.3523877 20.81076172 47.35125977 21.80462891 47.35009766 22.82861328 C47.22070312 25.12939453 47.22070312 25.12939453 46.22070312 26.12939453 C44.63007003 26.22793876 43.03508835 26.25738147 41.44140625 26.25878906 C39.91477356 26.2635173 39.91477356 26.2635173 38.3572998 26.26834106 C37.2500354 26.26631683 36.142771 26.2642926 35.00195312 26.26220703 C33.87374146 26.26316376 32.74552979 26.26412048 31.58312988 26.2651062 C29.19230087 26.26578821 26.80147001 26.2639325 24.41064453 26.25976562 C20.73661161 26.25441769 17.06270096 26.25970996 13.38867188 26.26611328 C11.07226535 26.2654525 8.75585891 26.26417135 6.43945312 26.26220703 C5.33218872 26.26423126 4.22492432 26.26625549 3.08410645 26.26834106 C2.06635132 26.2651889 1.04859619 26.26203674 0 26.25878906 C-0.90077271 26.25799347 -1.80154541 26.25719788 -2.72961426 26.25637817 C-4.77929688 26.12939453 -4.77929688 26.12939453 -5.77929688 25.12939453 C-5.8787614 23.3608026 -5.91009905 21.58828002 -5.91210938 19.81689453 C-5.91339844 18.74181641 -5.9146875 17.66673828 -5.91601562 16.55908203 C-5.91021484 14.86138672 -5.91021484 14.86138672 -5.90429688 13.12939453 C-5.90816406 11.99759766 -5.91203125 10.86580078 -5.91601562 9.69970703 C-5.91472656 8.62462891 -5.9134375 7.54955078 -5.91210938 6.44189453 C-5.91098145 5.44802734 -5.90985352 4.45416016 -5.90869141 3.43017578 C-5.67412002 -0.74076909 -3.68445244 0.00325423 0 0 Z " fill="#E3E3EC" transform="translate(202.779296875,592.87060546875)"/>
</svg>
