<?xml version="1.0" standalone="no"?>
<!DOCTYPE svg PUBLIC "-//W3C//DTD SVG 20010904//EN"
 "http://www.w3.org/TR/2001/REC-SVG-20010904/DTD/svg10.dtd">
<svg version="1.0" xmlns="http://www.w3.org/2000/svg"
 width="500.000000pt" height="500.000000pt" viewBox="0 0 500.000000 500.000000"
 preserveAspectRatio="xMidYMid meet">

<g transform="translate(0.000000,500.000000) scale(0.100000,-0.100000)"
fill="#000000" stroke="none">
<path d="M2255 4106 c-153 -29 -309 -115 -451 -249 -52 -49 -94 -93 -94 -97 0
-5 32 2 71 15 163 56 369 72 494 40 245 -64 422 -242 549 -551 46 -112 59
-175 54 -249 -9 -103 -43 -163 -165 -287 -59 -59 -103 -108 -97 -108 31 0 192
46 294 85 291 108 432 281 391 476 -32 151 -252 507 -421 680 -187 193 -420
284 -625 245z"/>
<path d="M2175 3639 c-33 -11 -64 -24 -70 -29 -5 -4 -62 -35 -125 -70 -286
-155 -515 -363 -614 -558 -38 -75 -59 -168 -59 -267 -2 -190 62 -343 223 -529
62 -72 136 -137 126 -111 -16 43 -57 218 -67 292 -19 132 10 302 70 422 29 56
120 166 176 213 94 78 290 178 409 208 95 24 136 25 226 4 79 -18 104 -35 234
-162 87 -85 89 -86 82 -52 -10 58 -56 221 -78 280 -55 145 -164 288 -263 344
-69 40 -183 46 -270 15z"/>
<path d="M3342 3640 c23 -66 59 -233 68 -309 13 -111 2 -211 -35 -325 -27 -83
-39 -104 -118 -203 -54 -68 -201 -183 -275 -215 -26 -11 -67 -30 -92 -41 -210
-94 -359 -90 -490 14 -24 19 -77 68 -117 109 -42 44 -73 68 -73 59 0 -9 9 -51
21 -95 11 -43 25 -97 30 -119 27 -108 136 -301 210 -371 83 -78 196 -109 305
-85 107 24 341 152 512 279 79 59 208 183 260 249 129 166 173 346 133 542
-24 113 -60 191 -140 306 -49 69 -208 234 -199 205z"/>
<path d="M2325 3074 c-33 -8 -82 -18 -108 -24 -65 -13 -231 -83 -292 -124 -27
-18 -57 -35 -67 -39 -24 -9 -119 -126 -139 -172 -44 -102 -33 -188 43 -343 52
-108 77 -149 174 -299 106 -162 295 -346 417 -406 147 -72 317 -87 472 -42
107 31 148 52 249 124 71 51 215 186 216 203 0 3 -21 -1 -47 -9 -143 -45 -195
-55 -313 -60 -140 -6 -218 7 -324 54 -85 37 -131 70 -204 145 -84 86 -125 144
-178 254 -96 198 -122 320 -89 428 24 78 56 124 160 229 53 53 95 97 93 96 -2
-1 -30 -7 -63 -15z"/>
<path d="M2455 3057 c-11 -7 -55 -48 -97 -93 -106 -110 -106 -119 7 -230 95
-94 117 -108 150 -100 13 3 64 46 114 95 123 119 122 124 0 249 -77 78 -95 92
-122 92 -18 -1 -41 -6 -52 -13z"/>
<path d="M1035 1362 c-43 -4 -55 -14 -144 -125 l-54 -67 -69 0 -68 0 0 95 0
95 -40 0 -40 0 2 -237 3 -238 35 0 35 0 3 103 3 102 63 0 63 0 89 -105 c83
-98 91 -104 127 -105 20 0 37 5 37 11 0 11 -38 61 -110 143 -91 105 -85 88
-44 132 20 21 48 55 62 74 14 19 41 51 60 72 19 20 33 40 31 45 -2 4 -22 7
-44 5z"/>
<path d="M1353 1362 l-193 -2 0 -241 0 -240 33 3 32 3 3 88 3 87 84 0 c81 0
84 -1 117 -33 18 -19 52 -59 76 -90 39 -52 47 -57 82 -57 21 0 41 4 44 9 3 4
-24 42 -59 84 -36 41 -65 78 -65 81 0 3 18 6 39 6 23 0 48 8 62 19 22 18 24
28 27 123 3 89 1 107 -15 126 -27 33 -59 37 -270 34z m206 -76 c7 -9 11 -41 9
-83 l-3 -68 -165 0 -165 0 -3 69 c-2 38 -1 75 2 83 8 20 309 19 325 -1z"/>
<path d="M1760 1362 c-9 -4 -27 -15 -40 -25 l-25 -17 3 -188 c1 -103 5 -195 8
-205 12 -38 55 -47 228 -47 248 0 246 -2 246 244 0 91 -4 176 -10 191 -17 45
-61 55 -237 54 -87 0 -165 -3 -173 -7z m345 -84 c3 -13 4 -88 3 -168 l-3 -145
-167 -3 -168 -2 0 163 c0 90 3 167 7 170 3 4 77 7 164 7 156 0 159 0 164 -22z"/>
<path d="M2310 1353 c-20 -11 -37 -28 -41 -43 -12 -42 -10 -334 2 -369 19 -53
48 -61 233 -61 91 0 176 4 191 10 39 15 55 65 55 170 l0 90 -95 0 -95 0 0 -35
0 -34 58 -3 57 -3 0 -55 0 -55 -168 -3 -167 -2 2 167 3 168 160 0 c156 0 160
-1 170 -22 7 -17 18 -23 43 -23 34 0 34 0 27 38 -13 73 -23 77 -223 80 -154 2
-182 0 -212 -15z"/>
<path d="M2824 1357 c-2 -7 -3 -116 -2 -242 l3 -230 33 -3 32 -3 0 193 0 193
53 -54 c28 -29 70 -77 92 -106 22 -28 70 -87 108 -130 37 -43 67 -82 67 -87 0
-5 21 -8 48 -6 l47 3 0 240 0 240 -37 3 -38 3 -2 -191 -3 -191 -80 97 c-44 53
-105 126 -135 163 -93 112 -103 121 -144 121 -20 0 -39 -6 -42 -13z"/>
<path d="M3380 1125 l0 -245 219 0 219 0 4 35 c2 20 2 38 -1 40 -2 3 -85 5
-183 5 l-178 0 0 65 0 65 145 0 145 0 0 40 0 40 -145 0 -145 0 0 65 0 65 179
0 179 0 4 30 c3 17 2 32 0 35 -3 3 -104 5 -224 5 l-218 0 0 -245z"/>
<path d="M3894 1357 c-2 -7 -3 -116 -2 -242 l3 -230 37 -3 37 -3 3 88 3 88 79
3 79 3 39 -38 c22 -21 57 -62 80 -90 36 -48 44 -53 79 -53 23 0 39 5 39 12 0
6 -27 44 -60 84 -33 40 -60 75 -60 78 0 3 18 6 39 6 32 0 44 6 65 31 24 28 26
38 26 125 0 148 -12 154 -286 154 -148 0 -196 -3 -200 -13z m401 -142 l0 -80
-160 0 -160 0 -3 69 c-2 38 -1 75 2 83 5 11 37 13 163 11 l158 -3 0 -80z"/>
</g>
</svg>
