<?xml version="1.0" encoding="iso-8859-1"?><!-- Generator: Adobe Illustrator 21.1.0, SVG Export Plug-In . SVG Version: 6.00 Build 0)  --><svg xmlns="http://www.w3.org/2000/svg" xmlns:xlink="http://www.w3.org/1999/xlink" viewBox="0 0 50 50" width="500px" height="500px"><g><polygon points="33.965,19 29.456,31 32.641,31 37.15,19 "/><path d="M25.868,2.024c-0.22-0.008-0.441-0.015-0.662-0.017L20.15,16h3.245c2.12,0,3.262,1.631,2.536,3.626l-5.438,14.375L16.574,34l5.576-15h-3.186l-5.576,15H9.15L20.799,2.394c-0.471,0.087-0.938,0.185-1.398,0.301C9.417,5.202,2.001,14.251,2.001,25.002c0,10.381,6.914,19.173,16.378,22.024c0.321,0.097,0.645,0.189,0.972,0.272l0.692-1.912l4.026-11.128h0.002L30.589,16h7.804c2.122,0,3.264,1.631,2.539,3.626l-4.748,12.688C35.846,33.241,34.762,34,33.775,34H28.15l-4.323,11.942l-0.715,1.976c0.292,0.024,0.584,0.046,0.879,0.058c0.336,0.015,0.672,0.026,1.011,0.026c12.682,0,23-10.317,23-23C48.001,12.61,38.149,2.482,25.868,2.024z"/></g></svg>